<svg width="49" height="48" viewBox="0 0 49 48" fill="none" xmlns="http://www.w3.org/2000/svg">
<rect x="0.333328" width="48" height="48" rx="24" fill="#5B21B6"/>
<path d="M16 18V24C16 24 16 27 23 27C30 27 30 24 30 24V18" stroke="#FAFAF9" stroke-width="1.5" stroke-linecap="round" stroke-linejoin="round"/>
<path d="M23 15C30 15 30 18 30 18C30 18 30 21 23 21C16 21 16 18 16 18C16 18 16 15 23 15Z" stroke="#FAFAF9" stroke-width="1.5" stroke-linecap="round" stroke-linejoin="round"/>
<path d="M23 33C16 33 16 30 16 30V24" stroke="#FAFAF9" stroke-width="1.5" stroke-linecap="round" stroke-linejoin="round"/>
<path d="M27 33V31" stroke="#FAFAF9" stroke-width="1.5" stroke-linecap="round"/>
<path d="M30 33V29" stroke="#FAFAF9" stroke-width="1.5" stroke-linecap="round"/>
<path d="M33 33V27" stroke="#FAFAF9" stroke-width="1.5" stroke-linecap="round"/>
</svg>
